<mxfile host="app.diagrams.net" agent="Mozilla/5.0 (X11; Ubuntu; Linux x86_64; rv:133.0) Gecko/20100101 Firefox/133.0" version="24.7.17">
  <diagram name="PÃ gina-1" id="-6i1UY_YxqIA8dKmt3YB">
    <mxGraphModel grid="1" page="1" gridSize="10" guides="1" tooltips="1" connect="1" arrows="1" fold="1" pageScale="1" pageWidth="827" pageHeight="1169" math="0" shadow="0">
      <root>
        <mxCell id="0" />
        <mxCell id="1" parent="0" />
        <mxCell id="V3zUyfG_l6l4wBPekwsB-3" style="edgeStyle=orthogonalEdgeStyle;rounded=0;orthogonalLoop=1;jettySize=auto;html=1;entryX=0.5;entryY=0;entryDx=0;entryDy=0;" edge="1" parent="1" source="V3zUyfG_l6l4wBPekwsB-1" target="V3zUyfG_l6l4wBPekwsB-2">
          <mxGeometry relative="1" as="geometry" />
        </mxCell>
        <mxCell id="V3zUyfG_l6l4wBPekwsB-11" style="edgeStyle=orthogonalEdgeStyle;rounded=0;orthogonalLoop=1;jettySize=auto;html=1;" edge="1" parent="1" source="V3zUyfG_l6l4wBPekwsB-1" target="V3zUyfG_l6l4wBPekwsB-10">
          <mxGeometry relative="1" as="geometry" />
        </mxCell>
        <mxCell id="V3zUyfG_l6l4wBPekwsB-1" value="response" style="ellipse;whiteSpace=wrap;html=1;" vertex="1" parent="1">
          <mxGeometry x="170" y="110" width="120" height="80" as="geometry" />
        </mxCell>
        <mxCell id="V3zUyfG_l6l4wBPekwsB-5" style="edgeStyle=orthogonalEdgeStyle;rounded=0;orthogonalLoop=1;jettySize=auto;html=1;" edge="1" parent="1" source="V3zUyfG_l6l4wBPekwsB-2" target="V3zUyfG_l6l4wBPekwsB-4">
          <mxGeometry relative="1" as="geometry" />
        </mxCell>
        <mxCell id="V3zUyfG_l6l4wBPekwsB-2" value="row" style="ellipse;whiteSpace=wrap;html=1;" vertex="1" parent="1">
          <mxGeometry x="170" y="280" width="120" height="80" as="geometry" />
        </mxCell>
        <mxCell id="V3zUyfG_l6l4wBPekwsB-4" value="......" style="rounded=0;whiteSpace=wrap;html=1;" vertex="1" parent="1">
          <mxGeometry x="360" y="300" width="80" height="40" as="geometry" />
        </mxCell>
        <mxCell id="V3zUyfG_l6l4wBPekwsB-9" style="edgeStyle=orthogonalEdgeStyle;rounded=0;orthogonalLoop=1;jettySize=auto;html=1;entryX=0.5;entryY=1;entryDx=0;entryDy=0;" edge="1" parent="1" source="V3zUyfG_l6l4wBPekwsB-6" target="V3zUyfG_l6l4wBPekwsB-2">
          <mxGeometry relative="1" as="geometry" />
        </mxCell>
        <mxCell id="V3zUyfG_l6l4wBPekwsB-6" value="brand" style="ellipse;whiteSpace=wrap;html=1;" vertex="1" parent="1">
          <mxGeometry x="90" y="400" width="120" height="80" as="geometry" />
        </mxCell>
        <mxCell id="V3zUyfG_l6l4wBPekwsB-8" style="edgeStyle=orthogonalEdgeStyle;rounded=0;orthogonalLoop=1;jettySize=auto;html=1;entryX=0.5;entryY=1;entryDx=0;entryDy=0;" edge="1" parent="1" source="V3zUyfG_l6l4wBPekwsB-7" target="V3zUyfG_l6l4wBPekwsB-2">
          <mxGeometry relative="1" as="geometry" />
        </mxCell>
        <mxCell id="V3zUyfG_l6l4wBPekwsB-7" value="vehicle_type" style="ellipse;whiteSpace=wrap;html=1;" vertex="1" parent="1">
          <mxGeometry x="250" y="400" width="120" height="80" as="geometry" />
        </mxCell>
        <mxCell id="V3zUyfG_l6l4wBPekwsB-10" value="1" style="rounded=0;whiteSpace=wrap;html=1;" vertex="1" parent="1">
          <mxGeometry x="330" y="130" width="80" height="40" as="geometry" />
        </mxCell>
      </root>
    </mxGraphModel>
  </diagram>
</mxfile>
